<svg xmlns="http://www.w3.org/2000/svg" viewBox="0 0 512 512" role="img" aria-labelledby="title">
  <title id="title">Shadow Steps maskable icon</title>
  <rect width="512" height="512" fill="#111514"/>
  <circle cx="256" cy="256" r="196" fill="#18201e"/>
  <path fill="#92d8cb" d="M154 114h148c58 0 100 42 100 98 0 42-24 76-62 92l74 104H304l-58-90h-18v90h-74V114Zm74 64v78h66c21 0 35-16 35-40 0-23-14-38-35-38h-66Z"/>
  <path fill="#d74957" d="M91 356c60-32 118-35 173-9 44 20 87 19 131-4l27 52c-61 32-122 34-182 7-39-18-79-16-121 7L91 356Z"/>
</svg>
